<mxfile host="Electron" modified="2023-10-04T03:02:46.996Z" agent="Mozilla/5.0 (Windows NT 10.0; Win64; x64) AppleWebKit/537.36 (KHTML, like Gecko) draw.io/22.0.2 Chrome/114.0.5735.289 Electron/25.8.4 Safari/537.36" etag="6WGw_DA98eRplrNw8UCZ" version="22.0.2" type="device" pages="2">
  <diagram id="Pgssm8ysJMCCJPDAA3uJ" name="Page-1">
    <mxGraphModel dx="1434" dy="836" grid="0" gridSize="10" guides="1" tooltips="1" connect="1" arrows="1" fold="1" page="0" pageScale="1" pageWidth="850" pageHeight="1100" math="0" shadow="0">
      <root>
        <mxCell id="0" />
        <mxCell id="1" parent="0" />
        <mxCell id="i77qE_R36j4N131JsNcB-14" style="edgeStyle=orthogonalEdgeStyle;rounded=0;orthogonalLoop=1;jettySize=auto;html=1;fontColor=#FFFFFF;endArrow=block;endFill=1;strokeWidth=2;" parent="1" source="i77qE_R36j4N131JsNcB-1" target="i77qE_R36j4N131JsNcB-8" edge="1">
          <mxGeometry relative="1" as="geometry" />
        </mxCell>
        <mxCell id="i77qE_R36j4N131JsNcB-1" value="Service Catalog" style="sketch=0;points=[[0,0,0],[0.25,0,0],[0.5,0,0],[0.75,0,0],[1,0,0],[0,1,0],[0.25,1,0],[0.5,1,0],[0.75,1,0],[1,1,0],[0,0.25,0],[0,0.5,0],[0,0.75,0],[1,0.25,0],[1,0.5,0],[1,0.75,0]];points=[[0,0,0],[0.25,0,0],[0.5,0,0],[0.75,0,0],[1,0,0],[0,1,0],[0.25,1,0],[0.5,1,0],[0.75,1,0],[1,1,0],[0,0.25,0],[0,0.5,0],[0,0.75,0],[1,0.25,0],[1,0.5,0],[1,0.75,0]];outlineConnect=0;fontColor=#FFFFFF;gradientColor=#F34482;gradientDirection=north;fillColor=#BC1356;strokeColor=#ffffff;dashed=0;verticalLabelPosition=bottom;verticalAlign=top;align=center;html=1;fontSize=12;fontStyle=1;aspect=fixed;shape=mxgraph.aws4.resourceIcon;resIcon=mxgraph.aws4.service_catalog;" parent="1" vertex="1">
          <mxGeometry x="510" y="340" width="78" height="78" as="geometry" />
        </mxCell>
        <mxCell id="i77qE_R36j4N131JsNcB-17" style="edgeStyle=orthogonalEdgeStyle;rounded=0;orthogonalLoop=1;jettySize=auto;html=1;fontColor=#FFFFFF;endArrow=block;endFill=1;strokeWidth=2;" parent="1" source="i77qE_R36j4N131JsNcB-4" target="i77qE_R36j4N131JsNcB-6" edge="1">
          <mxGeometry relative="1" as="geometry">
            <mxPoint x="370" y="520" as="targetPoint" />
          </mxGeometry>
        </mxCell>
        <mxCell id="i77qE_R36j4N131JsNcB-4" value="AWSServiceCatalogEndUserFullAccess" style="sketch=0;outlineConnect=0;fontColor=#FFFFFF;gradientColor=none;fillColor=#BF0816;strokeColor=none;dashed=0;verticalLabelPosition=bottom;verticalAlign=top;align=center;html=1;fontSize=12;fontStyle=1;aspect=fixed;pointerEvents=1;shape=mxgraph.aws4.policy;" parent="1" vertex="1">
          <mxGeometry x="380" y="480" width="60.21" height="51.72" as="geometry" />
        </mxCell>
        <mxCell id="i77qE_R36j4N131JsNcB-20" style="edgeStyle=orthogonalEdgeStyle;rounded=0;orthogonalLoop=1;jettySize=auto;html=1;fontColor=#FFFFFF;endArrow=block;endFill=1;strokeWidth=2;" parent="1" source="i77qE_R36j4N131JsNcB-5" target="i77qE_R36j4N131JsNcB-1" edge="1">
          <mxGeometry relative="1" as="geometry" />
        </mxCell>
        <mxCell id="i77qE_R36j4N131JsNcB-19" style="edgeStyle=orthogonalEdgeStyle;rounded=0;orthogonalLoop=1;jettySize=auto;html=1;fontColor=#FFFFFF;endArrow=block;endFill=1;strokeWidth=2;" parent="1" source="i77qE_R36j4N131JsNcB-6" target="i77qE_R36j4N131JsNcB-5" edge="1">
          <mxGeometry relative="1" as="geometry" />
        </mxCell>
        <mxCell id="i77qE_R36j4N131JsNcB-6" value="Group" style="sketch=0;outlineConnect=0;fontColor=#FFFFFF;gradientColor=none;fillColor=#BF0816;strokeColor=none;dashed=0;verticalLabelPosition=bottom;verticalAlign=top;align=center;html=1;fontSize=12;fontStyle=1;aspect=fixed;pointerEvents=1;shape=mxgraph.aws4.users;" parent="1" vertex="1">
          <mxGeometry x="227.82" y="482.68" width="46.36" height="46.36" as="geometry" />
        </mxCell>
        <mxCell id="i77qE_R36j4N131JsNcB-7" value="EC2" style="sketch=0;points=[[0,0,0],[0.25,0,0],[0.5,0,0],[0.75,0,0],[1,0,0],[0,1,0],[0.25,1,0],[0.5,1,0],[0.75,1,0],[1,1,0],[0,0.25,0],[0,0.5,0],[0,0.75,0],[1,0.25,0],[1,0.5,0],[1,0.75,0]];outlineConnect=0;fontColor=#FFFFFF;gradientColor=#F78E04;gradientDirection=north;fillColor=#D05C17;strokeColor=#ffffff;dashed=0;verticalLabelPosition=bottom;verticalAlign=top;align=center;html=1;fontSize=12;fontStyle=1;aspect=fixed;shape=mxgraph.aws4.resourceIcon;resIcon=mxgraph.aws4.ec2;" parent="1" vertex="1">
          <mxGeometry x="1010" y="340" width="78" height="78" as="geometry" />
        </mxCell>
        <mxCell id="i77qE_R36j4N131JsNcB-10" value="Provisioning" style="edgeStyle=orthogonalEdgeStyle;rounded=0;orthogonalLoop=1;jettySize=auto;html=1;fontColor=#FFFFFF;strokeWidth=2;endArrow=block;endFill=1;fontStyle=2" parent="1" source="i77qE_R36j4N131JsNcB-8" target="i77qE_R36j4N131JsNcB-7" edge="1">
          <mxGeometry relative="1" as="geometry" />
        </mxCell>
        <mxCell id="i77qE_R36j4N131JsNcB-27" style="edgeStyle=orthogonalEdgeStyle;rounded=0;orthogonalLoop=1;jettySize=auto;html=1;fontColor=#FFFFFF;endArrow=block;endFill=1;strokeWidth=2;" parent="1" source="i77qE_R36j4N131JsNcB-9" target="i77qE_R36j4N131JsNcB-22" edge="1">
          <mxGeometry relative="1" as="geometry" />
        </mxCell>
        <mxCell id="i77qE_R36j4N131JsNcB-9" value="CloudFormation&lt;br&gt;Template" style="sketch=0;outlineConnect=0;fontColor=#FFFFFF;gradientColor=none;fillColor=#B0084D;strokeColor=none;dashed=0;verticalLabelPosition=bottom;verticalAlign=top;align=center;html=1;fontSize=12;fontStyle=1;aspect=fixed;pointerEvents=1;shape=mxgraph.aws4.template;" parent="1" vertex="1">
          <mxGeometry x="680" y="223" width="41.67" height="50" as="geometry" />
        </mxCell>
        <mxCell id="i77qE_R36j4N131JsNcB-13" style="edgeStyle=orthogonalEdgeStyle;rounded=0;orthogonalLoop=1;jettySize=auto;html=1;fontColor=#FFFFFF;endArrow=block;endFill=1;strokeWidth=2;entryX=0;entryY=0.5;entryDx=0;entryDy=0;" parent="1" source="i77qE_R36j4N131JsNcB-11" target="i77qE_R36j4N131JsNcB-22" edge="1">
          <mxGeometry relative="1" as="geometry">
            <mxPoint x="818.75" y="460" as="targetPoint" />
          </mxGeometry>
        </mxCell>
        <mxCell id="i77qE_R36j4N131JsNcB-11" value="Role&lt;br&gt;(Launch Constraint)" style="sketch=0;outlineConnect=0;fontColor=#FFFFFF;gradientColor=none;fillColor=#BF0816;strokeColor=none;dashed=0;verticalLabelPosition=bottom;verticalAlign=top;align=center;html=1;fontSize=12;fontStyle=1;aspect=fixed;pointerEvents=1;shape=mxgraph.aws4.role;" parent="1" vertex="1">
          <mxGeometry x="351" y="135" width="78" height="44" as="geometry" />
        </mxCell>
        <mxCell id="i77qE_R36j4N131JsNcB-8" value="CloudFormation" style="sketch=0;points=[[0,0,0],[0.25,0,0],[0.5,0,0],[0.75,0,0],[1,0,0],[0,1,0],[0.25,1,0],[0.5,1,0],[0.75,1,0],[1,1,0],[0,0.25,0],[0,0.5,0],[0,0.75,0],[1,0.25,0],[1,0.5,0],[1,0.75,0]];points=[[0,0,0],[0.25,0,0],[0.5,0,0],[0.75,0,0],[1,0,0],[0,1,0],[0.25,1,0],[0.5,1,0],[0.75,1,0],[1,1,0],[0,0.25,0],[0,0.5,0],[0,0.75,0],[1,0.25,0],[1,0.5,0],[1,0.75,0]];outlineConnect=0;fontColor=#FFFFFF;gradientColor=#F34482;gradientDirection=north;fillColor=#BC1356;strokeColor=#ffffff;dashed=0;verticalLabelPosition=bottom;verticalAlign=top;align=center;html=1;fontSize=12;fontStyle=1;aspect=fixed;shape=mxgraph.aws4.resourceIcon;resIcon=mxgraph.aws4.cloudformation;labelBackgroundColor=default;spacingTop=12;" parent="1" vertex="1">
          <mxGeometry x="750" y="340" width="78" height="78" as="geometry" />
        </mxCell>
        <mxCell id="i77qE_R36j4N131JsNcB-5" value="End User" style="sketch=0;outlineConnect=0;fontColor=#FFFFFF;gradientColor=none;fillColor=#BF0816;strokeColor=none;dashed=0;verticalLabelPosition=bottom;verticalAlign=top;align=center;html=1;fontSize=12;fontStyle=1;aspect=fixed;pointerEvents=1;shape=mxgraph.aws4.user;labelBackgroundColor=default;" parent="1" vertex="1">
          <mxGeometry x="212" y="340" width="78" height="78" as="geometry" />
        </mxCell>
        <mxCell id="i77qE_R36j4N131JsNcB-23" style="edgeStyle=orthogonalEdgeStyle;rounded=0;orthogonalLoop=1;jettySize=auto;html=1;fontColor=#FFFFFF;endArrow=block;endFill=1;strokeWidth=2;" parent="1" source="i77qE_R36j4N131JsNcB-21" target="i77qE_R36j4N131JsNcB-22" edge="1">
          <mxGeometry relative="1" as="geometry" />
        </mxCell>
        <mxCell id="i77qE_R36j4N131JsNcB-21" value="Admin" style="sketch=0;outlineConnect=0;fontColor=#FFFFFF;gradientColor=none;fillColor=#BF0816;strokeColor=none;dashed=0;verticalLabelPosition=bottom;verticalAlign=top;align=center;html=1;fontSize=12;fontStyle=1;aspect=fixed;pointerEvents=1;shape=mxgraph.aws4.user;labelBackgroundColor=default;" parent="1" vertex="1">
          <mxGeometry x="664" y="98" width="78" height="78" as="geometry" />
        </mxCell>
        <mxCell id="i77qE_R36j4N131JsNcB-24" style="edgeStyle=orthogonalEdgeStyle;rounded=0;orthogonalLoop=1;jettySize=auto;html=1;fontColor=#FFFFFF;endArrow=block;endFill=1;strokeWidth=2;" parent="1" source="i77qE_R36j4N131JsNcB-22" target="i77qE_R36j4N131JsNcB-1" edge="1">
          <mxGeometry relative="1" as="geometry" />
        </mxCell>
        <mxCell id="i77qE_R36j4N131JsNcB-22" value="Product &amp;amp;&lt;br&gt;Portfolio" style="rounded=0;whiteSpace=wrap;html=1;fontStyle=1" parent="1" vertex="1">
          <mxGeometry x="489" y="218" width="120" height="60" as="geometry" />
        </mxCell>
        <mxCell id="i77qE_R36j4N131JsNcB-26" style="edgeStyle=orthogonalEdgeStyle;rounded=0;orthogonalLoop=1;jettySize=auto;html=1;fontColor=#FFFFFF;endArrow=block;endFill=1;strokeWidth=2;" parent="1" source="i77qE_R36j4N131JsNcB-25" target="i77qE_R36j4N131JsNcB-9" edge="1">
          <mxGeometry relative="1" as="geometry" />
        </mxCell>
        <mxCell id="i77qE_R36j4N131JsNcB-25" value="S3" style="sketch=0;points=[[0,0,0],[0.25,0,0],[0.5,0,0],[0.75,0,0],[1,0,0],[0,1,0],[0.25,1,0],[0.5,1,0],[0.75,1,0],[1,1,0],[0,0.25,0],[0,0.5,0],[0,0.75,0],[1,0.25,0],[1,0.5,0],[1,0.75,0]];outlineConnect=0;fontColor=#FFFFFF;gradientColor=#60A337;gradientDirection=north;fillColor=#277116;strokeColor=#ffffff;dashed=0;verticalLabelPosition=bottom;verticalAlign=top;align=center;html=1;fontSize=12;fontStyle=1;aspect=fixed;shape=mxgraph.aws4.resourceIcon;resIcon=mxgraph.aws4.s3;labelBackgroundColor=default;" parent="1" vertex="1">
          <mxGeometry x="800" y="223" width="50" height="50" as="geometry" />
        </mxCell>
      </root>
    </mxGraphModel>
  </diagram>
  <diagram id="5Lzf6qHjmy4J-z98c74e" name="Page-2">
    <mxGraphModel dx="1595" dy="297" grid="0" gridSize="10" guides="1" tooltips="1" connect="1" arrows="1" fold="1" page="0" pageScale="1" pageWidth="850" pageHeight="1100" math="0" shadow="0">
      <root>
        <mxCell id="0" />
        <mxCell id="1" parent="0" />
        <mxCell id="voZv_FPPcACSHcdGHpWJ-25" value="" style="fillColor=none;strokeColor=#B3B3B3;dashed=1;verticalAlign=top;fontStyle=0;fontColor=#FFFFFF;whiteSpace=wrap;html=1;" vertex="1" parent="1">
          <mxGeometry x="-10" y="900" width="160" height="130" as="geometry" />
        </mxCell>
        <mxCell id="voZv_FPPcACSHcdGHpWJ-20" value="" style="rounded=1;whiteSpace=wrap;html=1;strokeWidth=2;arcSize=0;" vertex="1" parent="1">
          <mxGeometry x="-20" y="700" width="180" height="120" as="geometry" />
        </mxCell>
        <mxCell id="voZv_FPPcACSHcdGHpWJ-14" value="Manage Portfolio&lt;br&gt;Register Products" style="edgeStyle=orthogonalEdgeStyle;rounded=0;orthogonalLoop=1;jettySize=auto;html=1;strokeWidth=3;endArrow=block;endFill=1;fontSize=15;" edge="1" parent="1" source="XLX6wz3R1K3lRb75-usF-2" target="voZv_FPPcACSHcdGHpWJ-20">
          <mxGeometry relative="1" as="geometry" />
        </mxCell>
        <mxCell id="voZv_FPPcACSHcdGHpWJ-2" value="AWSServiceCatalog&lt;br&gt;EndUserFullAccess" style="sketch=0;outlineConnect=0;fontColor=#FFFFFF;gradientColor=none;fillColor=#DD344C;strokeColor=none;dashed=0;verticalLabelPosition=bottom;verticalAlign=top;align=center;html=1;fontSize=15;fontStyle=1;aspect=fixed;pointerEvents=1;shape=mxgraph.aws4.policy;" vertex="1" parent="1">
          <mxGeometry x="-330" y="721" width="78" height="67" as="geometry" />
        </mxCell>
        <mxCell id="voZv_FPPcACSHcdGHpWJ-4" value="CloudFormation" style="sketch=0;points=[[0,0,0],[0.25,0,0],[0.5,0,0],[0.75,0,0],[1,0,0],[0,1,0],[0.25,1,0],[0.5,1,0],[0.75,1,0],[1,1,0],[0,0.25,0],[0,0.5,0],[0,0.75,0],[1,0.25,0],[1,0.5,0],[1,0.75,0]];points=[[0,0,0],[0.25,0,0],[0.5,0,0],[0.75,0,0],[1,0,0],[0,1,0],[0.25,1,0],[0.5,1,0],[0.75,1,0],[1,1,0],[0,0.25,0],[0,0.5,0],[0,0.75,0],[1,0.25,0],[1,0.5,0],[1,0.75,0]];outlineConnect=0;fontColor=#FFFFFF;fillColor=#E7157B;strokeColor=#ffffff;dashed=0;verticalLabelPosition=bottom;verticalAlign=top;align=center;html=1;fontSize=15;fontStyle=1;aspect=fixed;shape=mxgraph.aws4.resourceIcon;resIcon=mxgraph.aws4.cloudformation;" vertex="1" parent="1">
          <mxGeometry x="296.75" y="721" width="78" height="78" as="geometry" />
        </mxCell>
        <mxCell id="voZv_FPPcACSHcdGHpWJ-6" value="Bucket" style="sketch=0;points=[[0,0,0],[0.25,0,0],[0.5,0,0],[0.75,0,0],[1,0,0],[0,1,0],[0.25,1,0],[0.5,1,0],[0.75,1,0],[1,1,0],[0,0.25,0],[0,0.5,0],[0,0.75,0],[1,0.25,0],[1,0.5,0],[1,0.75,0]];outlineConnect=0;fontColor=#FFFFFF;fillColor=#7AA116;strokeColor=#ffffff;dashed=0;verticalLabelPosition=bottom;verticalAlign=top;align=center;html=1;fontSize=15;fontStyle=1;aspect=fixed;shape=mxgraph.aws4.resourceIcon;resIcon=mxgraph.aws4.s3;" vertex="1" parent="1">
          <mxGeometry x="160" y="610" width="60" height="60" as="geometry" />
        </mxCell>
        <mxCell id="voZv_FPPcACSHcdGHpWJ-7" value="CFN&lt;br&gt;Template" style="sketch=0;outlineConnect=0;fontColor=#FFFFFF;gradientColor=none;fillColor=#E7157B;strokeColor=none;dashed=0;verticalLabelPosition=bottom;verticalAlign=top;align=center;html=1;fontSize=15;fontStyle=1;aspect=fixed;pointerEvents=1;shape=mxgraph.aws4.template;" vertex="1" parent="1">
          <mxGeometry x="230" y="610" width="50" height="60" as="geometry" />
        </mxCell>
        <mxCell id="voZv_FPPcACSHcdGHpWJ-12" value="End User" style="sketch=0;outlineConnect=0;fontColor=#FFFFFF;gradientColor=none;fillColor=#DD344C;strokeColor=none;dashed=0;verticalLabelPosition=bottom;verticalAlign=top;align=center;html=1;fontSize=15;fontStyle=1;aspect=fixed;pointerEvents=1;shape=mxgraph.aws4.user;" vertex="1" parent="1">
          <mxGeometry x="40" y="930" width="60" height="60" as="geometry" />
        </mxCell>
        <mxCell id="voZv_FPPcACSHcdGHpWJ-17" style="edgeStyle=orthogonalEdgeStyle;rounded=0;orthogonalLoop=1;jettySize=auto;html=1;strokeWidth=3;endArrow=block;endFill=1;" edge="1" parent="1" source="voZv_FPPcACSHcdGHpWJ-20" target="voZv_FPPcACSHcdGHpWJ-4">
          <mxGeometry relative="1" as="geometry">
            <mxPoint x="49" y="398" as="sourcePoint" />
            <mxPoint x="79" y="720" as="targetPoint" />
          </mxGeometry>
        </mxCell>
        <mxCell id="voZv_FPPcACSHcdGHpWJ-18" style="edgeStyle=orthogonalEdgeStyle;rounded=0;orthogonalLoop=1;jettySize=auto;html=1;strokeWidth=3;endArrow=block;endFill=1;" edge="1" parent="1" source="voZv_FPPcACSHcdGHpWJ-4" target="voZv_FPPcACSHcdGHpWJ-3">
          <mxGeometry relative="1" as="geometry">
            <mxPoint x="154.75" y="759" as="sourcePoint" />
            <mxPoint x="276.75" y="759" as="targetPoint" />
          </mxGeometry>
        </mxCell>
        <mxCell id="XLX6wz3R1K3lRb75-usF-2" value="Security /&lt;br&gt;Administrator" style="sketch=0;outlineConnect=0;fontColor=#FFFFFF;gradientColor=none;fillColor=#DD344C;strokeColor=none;dashed=0;verticalLabelPosition=bottom;verticalAlign=top;align=center;html=1;fontSize=15;fontStyle=1;aspect=fixed;pointerEvents=1;shape=mxgraph.aws4.user;labelBackgroundColor=default;" vertex="1" parent="1">
          <mxGeometry x="40" y="470" width="60" height="60" as="geometry" />
        </mxCell>
        <mxCell id="voZv_FPPcACSHcdGHpWJ-19" value="Launch Product" style="edgeStyle=orthogonalEdgeStyle;rounded=0;orthogonalLoop=1;jettySize=auto;html=1;strokeWidth=3;endArrow=block;endFill=1;fontSize=15;" edge="1" parent="1" source="voZv_FPPcACSHcdGHpWJ-12" target="voZv_FPPcACSHcdGHpWJ-20">
          <mxGeometry relative="1" as="geometry">
            <mxPoint x="118" y="759" as="sourcePoint" />
            <mxPoint x="264" y="759" as="targetPoint" />
          </mxGeometry>
        </mxCell>
        <mxCell id="voZv_FPPcACSHcdGHpWJ-5" value="Service Catalog" style="sketch=0;points=[[0,0,0],[0.25,0,0],[0.5,0,0],[0.75,0,0],[1,0,0],[0,1,0],[0.25,1,0],[0.5,1,0],[0.75,1,0],[1,1,0],[0,0.25,0],[0,0.5,0],[0,0.75,0],[1,0.25,0],[1,0.5,0],[1,0.75,0]];points=[[0,0,0],[0.25,0,0],[0.5,0,0],[0.75,0,0],[1,0,0],[0,1,0],[0.25,1,0],[0.5,1,0],[0.75,1,0],[1,1,0],[0,0.25,0],[0,0.5,0],[0,0.75,0],[1,0.25,0],[1,0.5,0],[1,0.75,0]];outlineConnect=0;fontColor=#FFFFFF;fillColor=#E7157B;strokeColor=#ffffff;dashed=0;verticalLabelPosition=bottom;verticalAlign=top;align=center;html=1;fontSize=15;fontStyle=1;aspect=fixed;shape=mxgraph.aws4.resourceIcon;resIcon=mxgraph.aws4.service_catalog;labelBackgroundColor=default;" vertex="1" parent="1">
          <mxGeometry x="30" y="710" width="78" height="78" as="geometry" />
        </mxCell>
        <mxCell id="voZv_FPPcACSHcdGHpWJ-21" value="Uses Product" style="edgeStyle=orthogonalEdgeStyle;rounded=0;orthogonalLoop=1;jettySize=auto;html=1;strokeWidth=3;endArrow=block;endFill=1;fontSize=15;labelPosition=center;verticalLabelPosition=top;align=center;verticalAlign=bottom;fontStyle=0" edge="1" parent="1" source="voZv_FPPcACSHcdGHpWJ-12" target="voZv_FPPcACSHcdGHpWJ-3">
          <mxGeometry relative="1" as="geometry">
            <mxPoint x="80" y="930" as="sourcePoint" />
            <mxPoint x="80" y="830" as="targetPoint" />
          </mxGeometry>
        </mxCell>
        <mxCell id="voZv_FPPcACSHcdGHpWJ-3" value="EC2 Instance" style="sketch=0;points=[[0,0,0],[0.25,0,0],[0.5,0,0],[0.75,0,0],[1,0,0],[0,1,0],[0.25,1,0],[0.5,1,0],[0.75,1,0],[1,1,0],[0,0.25,0],[0,0.5,0],[0,0.75,0],[1,0.25,0],[1,0.5,0],[1,0.75,0]];outlineConnect=0;fontColor=#FFFFFF;fillColor=#ED7100;strokeColor=#ffffff;dashed=0;verticalLabelPosition=bottom;verticalAlign=top;align=center;html=1;fontSize=15;fontStyle=1;aspect=fixed;shape=mxgraph.aws4.resourceIcon;resIcon=mxgraph.aws4.ec2;labelBackgroundColor=default;" vertex="1" parent="1">
          <mxGeometry x="490" y="721" width="78" height="78" as="geometry" />
        </mxCell>
        <mxCell id="voZv_FPPcACSHcdGHpWJ-24" value="Assume Role" style="edgeStyle=orthogonalEdgeStyle;rounded=0;orthogonalLoop=1;jettySize=auto;html=1;strokeWidth=3;endArrow=block;endFill=1;fontSize=15;labelPosition=center;verticalLabelPosition=top;align=center;verticalAlign=bottom;fontStyle=0" edge="1" parent="1" source="voZv_FPPcACSHcdGHpWJ-12" target="XLX6wz3R1K3lRb75-usF-1">
          <mxGeometry relative="1" as="geometry">
            <mxPoint x="80" y="930" as="sourcePoint" />
            <mxPoint x="80" y="830" as="targetPoint" />
          </mxGeometry>
        </mxCell>
        <mxCell id="XLX6wz3R1K3lRb75-usF-1" value="Service Catalog&lt;br&gt;End User Role" style="sketch=0;outlineConnect=0;fontColor=#FFFFFF;gradientColor=none;fillColor=#DD344C;strokeColor=none;dashed=0;verticalLabelPosition=bottom;verticalAlign=top;align=center;html=1;fontSize=15;fontStyle=1;aspect=fixed;pointerEvents=1;shape=mxgraph.aws4.role;labelBackgroundColor=default;" vertex="1" parent="1">
          <mxGeometry x="-200" y="732.5" width="78" height="44" as="geometry" />
        </mxCell>
        <mxCell id="XLX6wz3R1K3lRb75-usF-3" value="" style="sketch=0;outlineConnect=0;gradientColor=none;fontColor=#FFFFFF;strokeColor=none;fillColor=#DD344C;dashed=0;verticalLabelPosition=bottom;verticalAlign=top;align=center;html=1;fontSize=15;fontStyle=0;aspect=fixed;shape=mxgraph.aws4.illustration_users;pointerEvents=1;labelBackgroundColor=none;" vertex="1" parent="1">
          <mxGeometry y="910" width="42" height="42" as="geometry" />
        </mxCell>
        <mxCell id="voZv_FPPcACSHcdGHpWJ-29" style="edgeStyle=orthogonalEdgeStyle;rounded=0;orthogonalLoop=1;jettySize=auto;html=1;strokeWidth=3;endArrow=block;endFill=1;" edge="1" parent="1" source="XLX6wz3R1K3lRb75-usF-2">
          <mxGeometry relative="1" as="geometry">
            <mxPoint x="80" y="540" as="sourcePoint" />
            <mxPoint x="230" y="600" as="targetPoint" />
          </mxGeometry>
        </mxCell>
        <mxCell id="voZv_FPPcACSHcdGHpWJ-30" style="edgeStyle=orthogonalEdgeStyle;rounded=0;orthogonalLoop=1;jettySize=auto;html=1;strokeWidth=3;endArrow=block;endFill=1;" edge="1" parent="1" source="XLX6wz3R1K3lRb75-usF-2">
          <mxGeometry relative="1" as="geometry">
            <mxPoint x="-200" y="600" as="sourcePoint" />
            <mxPoint x="-210" y="710" as="targetPoint" />
          </mxGeometry>
        </mxCell>
      </root>
    </mxGraphModel>
  </diagram>
</mxfile>
